<svg width="44" height="44" viewBox="0 0 44 44" fill="none" xmlns="http://www.w3.org/2000/svg">
<path fill-rule="evenodd" clip-rule="evenodd" d="M22.0002 1.83325C10.8627 1.83325 1.8335 10.8624 1.8335 21.9999C1.8335 33.1374 10.8627 42.1666 22.0002 42.1666C33.1377 42.1666 42.1668 33.1374 42.1668 21.9999C42.1668 10.8624 33.1377 1.83325 22.0002 1.83325ZM30.7415 18.5899C30.9025 18.4059 31.025 18.1916 31.1019 17.9596C31.1788 17.7275 31.2085 17.4824 31.1893 17.2387C31.1701 16.995 31.1024 16.7576 30.9901 16.5405C30.8777 16.3234 30.7231 16.1309 30.5353 15.9744C30.3475 15.8179 30.1303 15.7005 29.8965 15.6292C29.6627 15.5579 29.417 15.534 29.1738 15.5591C28.9306 15.5842 28.6949 15.6576 28.4805 15.7751C28.2662 15.8926 28.0774 16.0517 27.9255 16.2433L20.0422 25.7014L15.963 21.6204C15.6172 21.2865 15.1541 21.1017 14.6734 21.1058C14.1927 21.11 13.7329 21.3028 13.393 21.6427C13.0531 21.9827 12.8603 22.4425 12.8561 22.9232C12.8519 23.4039 13.0367 23.867 13.3707 24.2128L18.8707 29.7128C19.0508 29.8928 19.2665 30.0333 19.5039 30.1254C19.7414 30.2174 19.9954 30.259 20.2498 30.2474C20.5042 30.2359 20.7535 30.1714 20.9816 30.0582C21.2097 29.945 21.4118 29.7855 21.5748 29.5899L30.7415 18.5899Z" fill="#36B853"/>
</svg>
